<svg width="27" height="27" viewBox="0 0 27 27" fill="none" xmlns="http://www.w3.org/2000/svg">
<path d="M16.4999 23.0947V14.2968C16.4999 14.0051 16.384 13.7254 16.1777 13.5191C15.9714 13.3129 15.6916 13.197 15.3999 13.197H10.9999C10.7082 13.197 10.4284 13.3129 10.2221 13.5191C10.0158 13.7254 9.8999 14.0051 9.8999 14.2968V23.0947" stroke="#FF4538" stroke-width="2.19948" stroke-linecap="round" stroke-linejoin="round"/>
<path d="M3.30005 10.9973C3.29997 10.6774 3.36972 10.3612 3.50442 10.071C3.63911 9.78079 3.83553 9.52344 4.07995 9.31691L11.7799 2.71956C12.177 2.38404 12.6801 2.19995 13.2 2.19995C13.7199 2.19995 14.2231 2.38404 14.6201 2.71956L22.3201 9.31691C22.5646 9.52344 22.761 9.78079 22.8957 10.071C23.0304 10.3612 23.1001 10.6774 23.1 10.9973V20.895C23.1 21.4783 22.8682 22.0378 22.4557 22.4503C22.0431 22.8627 21.4835 23.0945 20.9 23.0945H5.50005C4.91657 23.0945 4.35699 22.8627 3.94441 22.4503C3.53183 22.0378 3.30005 21.4783 3.30005 20.895V10.9973Z" stroke="#FF4538" stroke-width="2.19948" stroke-linecap="round" stroke-linejoin="round"/>
</svg>
